HIERARCHY
ROOT Hips
{
    OFFSET 0.000000 0.000000 0.000000
    CHANNELS 6 Xposition Yposition Zposition Zrotation Yrotation Xrotation
    JOINT LeftUpLeg
    {
        OFFSET 1.363060 -1.794630 0.839290
        CHANNELS 3 Zrotation Yrotation Xrotation
        JOINT LeftLeg
        {
            OFFSET 2.448110 -6.726130 0.000000
            CHANNELS 3 Zrotation Yrotation Xrotation
            JOINT LeftFoot
            {
                OFFSET 2.562200 -7.039589 0.000000
                CHANNELS 3 Zrotation Yrotation Xrotation
                JOINT LeftToeBase
                {
                    OFFSET 0.157640 -0.433110 2.322550
                    CHANNELS 3 Zrotation Yrotation Xrotation
                    End Site
                    {
                        OFFSET 0.000000 0.000000 0.000000
                    }
                }
            }
        }
    }
    JOINT RightUpLeg
    {
        OFFSET -1.305520 -1.794630 0.839290
        CHANNELS 3 Zrotation Yrotation Xrotation
        JOINT RightLeg
        {
            OFFSET -2.542530 -6.985549 0.000000
            CHANNELS 3 Zrotation Yrotation Xrotation
            JOINT RightFoot
            {
                OFFSET -2.568260 -7.056230 0.000000
                CHANNELS 3 Zrotation Yrotation Xrotation
                JOINT RightToeBase
                {
                    OFFSET -0.164730 -0.452590 2.363150
                    CHANNELS 3 Zrotation Yrotation Xrotation
                    End Site
                    {
                        OFFSET 0.000000 0.000000 0.000000
                    }
                }
            }
        }
    }
    JOINT Spine
    {
        OFFSET 0.028270 2.035590 -0.193380
        CHANNELS 3 Zrotation Yrotation Xrotation
        JOINT Spine1
        {
            OFFSET 0.056720 2.048850 -0.042750
            CHANNELS 3 Zrotation Yrotation Xrotation
            JOINT Neck1
            {
                OFFSET -0.054170 1.746240 0.172020
                CHANNELS 3 Zrotation Yrotation Xrotation
                JOINT Head
                {
                    OFFSET 0.104070 1.761360 -0.123970
                    CHANNELS 3 Zrotation Yrotation Xrotation
                    End Site
                    {
                        OFFSET 0.000000 0.000000 0.000000
                    }
                }
            }
            JOINT LeftShoulder
            {
                OFFSET 0.000000 0.000000 0.000000
                CHANNELS 3 Zrotation Yrotation Xrotation
                JOINT LeftArm
                {
                    OFFSET 3.362410 1.200890 -0.311210
                    CHANNELS 3 Zrotation Yrotation Xrotation
                    JOINT LeftForeArm
                    {
                        OFFSET 4.983000 -0.000000 -0.000000
                        CHANNELS 3 Zrotation Yrotation Xrotation
                        JOINT LeftHand
                        {
                            OFFSET 3.483560 -0.000000 -0.000000
                            CHANNELS 3 Zrotation Yrotation Xrotation
                            End Site
                            {
                                OFFSET 0.000000 0.000000 0.000000
                            }
                        }
                    }
                }
            }
            JOINT RightShoulder
            {
                OFFSET 0.000000 0.000000 0.000000
                CHANNELS 3 Zrotation Yrotation Xrotation
                JOINT RightArm
                {
                    OFFSET -3.136600 1.374050 -0.404650
                    CHANNELS 3 Zrotation Yrotation Xrotation
                    JOINT RightForeArm
                    {
                        OFFSET -5.241900 -0.000000 -0.000000
                        CHANNELS 3 Zrotation Yrotation Xrotation
                        JOINT RightHand
                        {
                            OFFSET -3.444170 -0.000000 -0.000000
                            CHANNELS 3 Zrotation Yrotation Xrotation
                            End Site
                            {
                                OFFSET 0.000000 0.000000 0.000000
                            }
                        }
                    }
                }
            }
        }
    }
}
MOTION
Frames: 13
Frame Time: 0.016667
23.724987 17.448324 11.693666 1.200949 -7.462693 23.718147 -10.279330 -2.341023 -37.088661 -26.155174 -30.800611 50.083908 -22.851540 43.083630 -28.388208 -0.513267 -0.693034 -2.939001 -3.864587 12.481218 -36.911674 23.149282 28.293621 45.201469 29.341167 -43.326828 -36.049530 -0.156907 -0.552788 -4.652952 -0.006007 -0.811790 11.133618 -1.261662 0.052136 -11.441907 8.388365 -2.337517 35.244854 -11.073138 -2.770530 -32.689014 16.150023 -23.408525 0.594570 -2.829243 -38.012386 5.382565 4.004588 -9.527245 -11.023353 3.016443 -1.907053 -10.382187 -17.101994 21.758455 -3.008761 -11.747389 42.745708 -26.042707 -0.880979 27.043324 12.054246 -3.015067 3.068557 12.617416 
23.747683 17.416576 11.713190 1.070585 -7.809935 24.434265 -9.751940 -2.737616 -37.824551 -26.314617 -30.053846 49.875278 -22.890779 43.156487 -28.825705 -0.598022 -1.390034 -3.056742 -4.154132 12.773213 -37.913586 23.464268 28.246859 45.587692 29.029940 -43.714848 -35.961197 -0.134384 -0.463681 -4.511013 -0.391387 -0.719104 11.028359 -1.086710 0.135349 -11.457452 8.850112 -1.989542 34.582317 -11.388030 -2.609549 -32.845566 16.182787 -23.315271 0.944015 -2.173553 -36.800781 5.090501 3.536275 -9.405021 -10.966132 0.014024 -1.919950 -10.225528 -17.382593 21.574713 -3.604129 -12.349452 42.737183 -25.814901 -1.882452 28.698898 11.460411 -2.960181 3.048297 12.545568 
23.769411 17.382591 11.731305 0.817487 -7.907668 24.901632 -9.878640 -2.313714 -38.728397 -26.780142 -30.008471 50.900120 -22.661028 42.721062 -29.556633 -0.525906 -1.206737 -2.670895 -4.946014 13.718447 -38.374847 23.933146 27.523487 45.455273 28.550537 -44.263279 -36.407631 -0.126453 -0.432599 -4.499737 -0.612621 -0.785162 11.200203 -0.901543 0.096155 -11.470304 8.645144 -1.236018 34.078575 -9.590096 -1.629737 -33.291557 16.274179 -23.146879 1.309532 -1.301838 -35.649643 4.552984 3.447317 -9.207431 -11.462346 -0.246900 -2.026078 -10.739870 -17.556404 21.378418 -4.045599 -13.125996 42.628044 -26.199579 -2.658364 30.463560 10.896715 -2.885045 3.040094 12.456026 
23.786613 17.330482 11.743649 0.671225 -8.070975 25.797281 -9.364856 -2.661197 -40.097767 -27.802362 -29.249523 51.861603 -22.079821 43.248333 -30.172789 -0.519356 -1.054345 -2.732504 -6.076679 14.422128 -39.702835 25.068899 26.775246 45.997017 28.218248 -44.634838 -37.437702 -0.082604 -0.260665 -4.566253 -0.954631 -0.789838 10.979803 -0.674847 0.111793 -11.537054 9.156196 -0.919726 33.621113 -10.068019 -1.535280 -33.721603 16.426252 -23.161312 1.511614 -0.492614 -34.405933 3.998333 3.448968 -8.973727 -11.948919 0.667663 -2.088460 -11.302484 -17.878239 21.168583 -4.649198 -13.646050 42.361656 -26.637285 -3.379271 32.371387 10.524187 -3.467708 3.070487 12.472940 
23.799471 17.281410 11.772898 0.374136 -8.439320 26.236872 -9.292347 -2.025579 -41.190205 -27.864738 -28.065554 52.265060 -20.776213 42.416336 -29.998816 -0.408439 -0.876325 -2.084429 -6.039844 14.316144 -40.645992 25.950668 26.642418 46.920780 27.478756 -44.482716 -37.520096 -0.122324 -0.416244 -4.365386 -1.327299 -0.695054 11.094441 -0.409018 0.219444 -11.616781 9.666799 -0.789119 33.802986 -10.869133 -1.797421 -35.114197 16.497618 -23.060715 1.774936 0.143646 -33.469246 3.328839 3.308170 -8.874592 -12.200117 0.824589 -2.314976 -11.595546 -18.039824 20.947592 -5.062441 -14.132327 42.198757 -27.002247 -4.124496 34.152626 9.918160 -3.099146 2.838838 12.454840 
23.799498 17.232195 11.749297 0.132841 -8.447898 26.677399 -8.362026 -2.399190 -42.169003 -28.150349 -26.529320 52.281364 -20.366165 42.451405 -29.392771 -0.399419 -1.200699 -1.777887 -6.185861 14.077475 -41.850739 27.443176 26.337650 48.315388 27.158287 -44.541904 -38.337952 -0.109044 -0.364535 -4.323808 -1.509443 -0.914069 11.525185 -0.253301 0.072679 -11.804377 9.239396 -0.191394 32.548500 -9.759172 -0.801330 -33.746792 16.968330 -23.067825 1.896733 0.734817 -31.953030 3.120596 3.167979 -8.902521 -12.785109 0.469288 -2.260910 -12.159313 -18.647516 20.920441 -5.636292 -14.710870 41.861332 -27.197756 -5.288475 35.496288 8.666076 -3.153053 2.760027 12.132799 
23.834118 17.148148 11.824216 -0.417628 -8.104882 27.158485 -7.553037 -2.718077 -43.279198 -28.616747 -25.120939 53.244682 -19.200813 42.092995 -30.231043 -0.351758 -0.919663 -1.657557 -5.857408 13.263949 -42.925117 28.968042 25.719698 49.636749 26.389582 -43.885391 -38.982105 0.134244 0.589874 -4.554726 -1.286237 -0.881860 11.095257 0.172234 0.045940 -11.590879 10.453632 -0.093691 33.095577 -11.437274 -1.474866 -35.160492 16.801329 -23.122587 2.262851 1.437499 -31.842705 1.297710 2.616957 -8.501379 -11.942850 0.402561 -2.324277 -11.422461 -18.266668 20.349478 -5.406957 -15.656124 41.892632 -25.798946 -8.028487 36.611679 6.006189 -3.921893 2.973803 11.061551 
23.856939 17.047617 11.840011 -0.717348 -7.774219 27.863676 -7.346835 -2.920406 -45.004272 -29.333508 -24.373789 55.076672 -18.809816 42.100212 -30.894588 -0.269665 -1.234598 -0.831053 -5.991177 12.292701 -44.814327 30.957420 24.589285 51.384571 25.144360 -43.473225 -39.563992 0.136974 0.589241 -4.232974 -1.152853 -1.049001 10.895223 0.490339 -0.092205 -11.567861 10.821599 -0.200583 33.012043 -12.312227 -1.943197 -36.332825 17.080208 -23.091356 2.280726 2.157258 -31.181522 -0.158382 2.319194 -8.883180 -11.383691 1.340644 -2.525885 -10.916026 -18.458893 19.943192 -5.566816 -16.506168 41.738056 -25.144541 -10.176323 37.270603 3.684295 -4.553928 3.287796 10.099620 
23.881203 16.941082 11.871347 -0.967732 -7.272354 28.023527 -7.643897 -2.923744 -46.384064 -32.446301 -25.133291 59.647038 -19.150356 43.823475 -34.005638 -0.074045 -1.283497 0.598375 -6.506742 11.543533 -45.881168 32.844624 22.933060 52.554596 24.493256 -42.231640 -40.744011 -0.164931 -0.580129 -4.081978 -0.920708 -1.286056 10.952053 0.744167 -0.270480 -11.618290 11.206816 0.118694 32.818504 -12.509579 -1.728953 -36.212593 17.350212 -23.306103 2.304056 2.574946 -31.053841 -1.288960 1.744142 -8.421230 -10.978609 0.984075 -2.664823 -10.604385 -18.532068 19.719540 -5.598223 -16.798979 41.593323 -23.507797 -12.889250 37.273243 0.810970 -5.024843 3.536224 8.933371 
23.911972 16.827730 11.894205 -1.130919 -6.331691 28.049303 -8.047416 -3.617885 -47.541378 -34.938934 -25.520597 64.025085 -18.729029 45.915234 -36.484161 0.013908 -1.042431 0.995731 -5.952486 9.705123 -47.058578 35.490456 22.415106 55.284351 24.399651 -42.412922 -41.962002 -0.104076 -0.345416 -4.144133 -0.431529 -1.646750 11.153766 0.988961 -0.530549 -11.680922 11.392713 0.044212 32.787384 -12.512257 -1.884376 -36.584988 17.729349 -23.540623 2.158436 3.250493 -31.204636 -3.813272 0.951528 -8.211177 -10.254620 2.145216 -2.328400 -10.038009 -18.587551 19.484261 -5.338200 -17.247272 41.071194 -22.514603 -14.885784 37.003159 -1.635754 -6.064579 3.753003 7.609637 
23.940649 16.711637 11.914561 -1.082207 -4.889709 27.972975 -8.409754 -5.157988 -48.417984 -36.407814 -25.390650 67.694054 -18.619064 47.526894 -38.652893 0.186677 -1.551081 2.721074 -4.777926 7.033218 -48.289825 37.927582 21.816551 58.624073 23.721237 -41.691162 -43.425804 -0.187690 -0.668054 -4.098250 0.309004 -2.187741 11.377569 1.119645 -0.914328 -11.789796 11.306629 -0.412285 32.812931 -12.140775 -2.367961 -37.087688 18.333117 -23.946144 1.716323 3.707699 -32.062813 -6.222260 -0.139820 -7.365578 -9.134305 1.833124 -2.465024 -9.056490 -18.753511 19.263132 -5.038560 -17.316465 40.437950 -21.921839 -16.126047 36.374592 -3.218639 -7.589009 4.301999 6.429559 
23.977476 16.589762 11.941752 -0.866272 -2.947655 27.791780 -8.361207 -7.538482 -49.174992 -36.581310 -24.114426 70.112450 -18.554260 47.813557 -40.473274 0.228262 -1.586159 3.056994 -3.867230 4.399319 -49.269623 40.962963 21.368679 62.230392 24.161631 -42.700439 -45.633678 -0.116669 -0.394148 -4.256238 1.323906 -2.767137 11.451180 1.174119 -1.338221 -11.791597 10.832558 -0.974023 32.781597 -10.921236 -2.695085 -36.956787 18.979568 -24.412838 1.151673 4.235241 -33.624050 -9.582264 -1.376247 -6.602120 -7.967432 1.036386 -1.534868 -7.908218 -18.672672 19.185312 -4.311386 -17.417332 39.181999 -20.563328 -17.372917 35.256161 -4.566171 -8.194650 4.318810 5.589035 
24.011509 16.460014 11.973981 -0.475215 -0.580129 27.497904 -8.311251 -10.340490 -49.722988 -36.392868 -22.607851 72.039856 -17.961731 48.549809 -41.692230 0.204044 -1.712620 3.019404 -3.393526 1.950493 -49.811100 43.269485 20.287249 64.977028 24.382505 -43.308327 -47.887272 -0.092839 -0.302238 -4.051940 2.625607 -3.371844 11.476584 1.119826 -1.790310 -11.810489 10.189504 -1.962486 33.321510 -10.399586 -3.654058 -38.099403 19.782995 -24.856192 0.150675 4.526661 -35.853279 -12.065581 -1.840754 -6.463735 -7.016531 0.358043 -0.635369 -6.915383 -18.607962 19.128792 -3.326801 -17.576841 37.573093 -19.206728 -18.010717 33.709442 -5.168314 -9.287990 4.474225 4.834158 
